<?xml version="1.0" encoding="utf-8"?>
<!-- Generator: Adobe Illustrator 15.0.2, SVG Export Plug-In . SVG Version: 6.00 Build 0)  -->
<!DOCTYPE svg PUBLIC "-//W3C//DTD SVG 1.1//EN" "http://www.w3.org/Graphics/SVG/1.1/DTD/svg11.dtd">
<svg version="1.1" id="Layer_1" xmlns="http://www.w3.org/2000/svg" xmlns:xlink="http://www.w3.org/1999/xlink" x="0px" y="0px"
	 width="48px" height="48px" viewBox="0 0 48 48" enable-background="new 0 0 48 48" xml:space="preserve">
<g opacity="0.15">
	<g>
		<path d="M31.013,17.947c-0.166,0-0.301-0.136-0.301-0.3V13.46c0-0.166-0.134-0.3-0.3-0.3H17.588c-0.165,0-0.3,0.135-0.3,0.3v4.188
			c0,0.164-0.135,0.3-0.3,0.3H8.301c-0.166,0-0.301,0.136-0.301,0.3v4.654c0,0.164,0.135,0.3,0.301,0.3h13.99
			c0.166,0,0.301-0.136,0.301-0.3v-0.993c0-0.164,0.136-0.3,0.302-0.3h2.214c0.166,0,0.301,0.136,0.301,0.3v0.993
			c0,0.164,0.136,0.3,0.301,0.3H39.7c0.166,0,0.3-0.136,0.3-0.3v-4.654c0-0.165-0.134-0.3-0.3-0.3H31.013L31.013,17.947z
			 M19.396,17.947c-0.166,0-0.3-0.136-0.3-0.3v-2.381c0-0.165,0.134-0.3,0.3-0.3h9.21c0.165,0,0.3,0.135,0.3,0.3v2.381
			c0,0.164-0.135,0.3-0.3,0.3H19.396z"/>
	</g>
	<g>
		<path d="M25.408,27.973c0,0.165-0.135,0.301-0.301,0.301h-2.214c-0.166,0-0.302-0.136-0.302-0.301v-3.345
			c0-0.165-0.136-0.3-0.301-0.3H8.301c-0.166,0-0.301,0.135-0.301,0.3v9.911c0,0.165,0.135,0.301,0.301,0.301H39.7
			c0.166,0,0.3-0.136,0.3-0.301v-9.911c0-0.165-0.134-0.3-0.3-0.3H25.71c-0.166,0-0.301,0.135-0.301,0.3L25.408,27.973
			L25.408,27.973z"/>
	</g>
</g>
</svg>
