<svg xmlns="http://www.w3.org/2000/svg" width="512" height="512"><rect fill="#66C0FF" width="512" height="512"/><g fill="#F6F6F6"><polygon points="25.5,189.088 59.346,189.088 81.857,279.499 82.256,279.499 111.728,189.088 140.604,189.088 169.876,281.892 170.274,281.892 193.978,189.088 225.439,189.088 184.212,330.077 156.531,330.077 125.467,232.503 125.072,232.503 94.006,330.077 67.316,330.077"/><path d="M258.428 185.508c9.562 0 17.328 7.76 17.328 17.322 0 9.558-7.767 17.327-17.328 17.327-9.557 0-17.326-7.769-17.326-17.327 0-9.562 7.769-17.322 17.326-17.322m-14.939 47.793h29.871v96.783h-29.871v-96.783z"/><path d="M370.742 257.195h-26.289v32.26c0 10.359 1.198 17.92 14.139 17.92 3.188 0 9.56-.39 12.15-2.779v24.886c-6.582 2.392-13.94 2.989-20.913 2.989-19.913 0-35.251-8.167-35.251-29.273v-46.002h-19.118v-23.894h19.118v-28.682h29.875v28.681h26.289v23.894z"/><path d="M423.168 179.529v66.912h.404c2.785-7.564 12.548-15.537 27.078-15.537 30.271 0 35.85 19.917 35.85 45.805v53.368h-29.87v-47.391c0-11.149-.199-25.488-15.537-25.488-15.535 0-17.925 12.146-17.925 24.693v48.186h-29.868v-150.548h29.868z"/></g></svg>