<svg xmlns="http://www.w3.org/2000/svg" width="86" height="29"><g fill="#F6F6F6"><path d="M0 1.783h6.314l4.199 16.866h.074l5.498-16.866h5.387l5.461 17.312h.074l4.423-17.312h5.869l-7.69 26.303h-5.164l-5.796-18.204h-.074l-5.795 18.204h-4.979l-7.801-26.303z"/><path d="M43.453 1.115c1.783 0 3.232 1.449 3.232 3.232s-1.449 3.232-3.232 3.232-3.232-1.449-3.232-3.232 1.449-3.232 3.232-3.232zM40.666 10.031h5.572v18.055h-5.572v-18.055z"/><path d="M64.405 14.489h-4.904v6.018c0 1.933 .224 3.343 2.638 3.343 .595 0 1.783-.073 2.267-.52v4.644c-1.227 .446-2.601 .558-3.901 .558-3.715 0-6.576-1.523-6.576-5.461v-8.582h-3.566v-4.458h3.566v-5.35h5.573v5.35h4.904v4.458z"/><path d="M74.186 0v12.482h.075c.52-1.412 2.341-2.898 5.052-2.898 5.647 0 6.687 3.716 6.687 8.545v9.957h-5.572v-8.842c0-2.08-.037-4.755-2.898-4.755-2.898 0-3.344 2.266-3.344 4.607v8.99h-5.572v-28.086h5.572z"/></g></svg>