<svg xmlns="http://www.w3.org/2000/svg" width="28" height="28"><circle fill="#fff" cx="14" cy="14" r="14"/><path fill="#171A1F" d="M18.666 21.875c-2.07 0-3.239-1.299-4.373-2.557l-.295-.322-.304 .338c-1.129 1.25-2.296 2.541-4.358 2.541-2.174 0-3.938-1.766-3.938-3.938 0-2.17 1.764-3.938 3.938-3.938 1.838 0 3.074 1.27 4.506 2.736l.156 .162 .134-.135c1.444-1.481 2.693-2.762 4.534-2.762 2.17 0 3.936 1.768 3.936 3.938 0 2.171-1.766 3.937-3.936 3.937zM15.018 17.951l.359 .393c1.002 1.111 1.869 2.072 3.289 2.072 1.367 0 2.479-1.111 2.479-2.479s-1.112-2.479-2.479-2.479c-1.227 0-2.227 1.025-3.492 2.324l-.146 .152 .004 .002-.014 .015zM9.336 15.459c-1.367 0-2.48 1.111-2.48 2.479s1.113 2.479 2.48 2.479c1.416 0 2.236-.908 3.274-2.059l.372-.406-.014-.014 .004-.002-.175-.182c-1.299-1.332-2.237-2.295-3.461-2.295z"/><rect x="7.325" y="8.679" transform="matrix(.707 .707 -.707 .707 9.94 -5.39)" fill="#171A1F" width="8.299" height="1.244"/><rect x="12.352" y="8.73" transform="matrix(-.707 .707 -.707 -.707 34.784 4.297)" fill="#171A1F" width="8.3" height="1.244"/><rect x="13.366" y="3.182" fill="#171A1F" width="1.244" height="8.301"/></svg>