<svg xmlns="http://www.w3.org/2000/svg" width="36" height="144"><path fill="#F7F7F7" d="M25.434 14.188l.01 .498c0 5.068-3.857 10.912-10.91 10.912-2.169 0-4.183-.633-5.882-1.723 .302 .033 .604 .051 .915 .051 1.798 0 3.452-.611 4.765-1.641-1.679-.029-3.096-1.139-3.583-2.664 .233 .047 .476 .07 .724 .07 .347 0 .686-.047 1.009-.135-1.754-.352-3.079-1.902-3.079-3.76v-.049c.52 .285 1.111 .461 1.74 .48-1.031-.691-1.709-1.863-1.709-3.193 0-.703 .189-1.361 .522-1.932 1.89 2.322 4.716 3.848 7.904 4.01-.065-.281-.1-.574-.1-.875 0-2.117 1.718-3.836 3.835-3.836 1.104 0 2.102 .469 2.801 1.213 .875-.172 1.693-.492 2.436-.932-.287 .896-.893 1.648-1.688 2.121 .777-.09 1.518-.299 2.203-.602-.515 .772-1.163 1.445-1.913 1.987z"/><path fill="#F7F7F7" d="M11.552 59.236c-2.893 0-5.235-2.344-5.235-5.234 0-2.893 2.343-5.238 5.235-5.238 2.892 0 5.238 2.346 5.238 5.238 .001 2.891-2.346 5.234-5.238 5.234zM24.447 59.236c-2.893 0-5.238-2.344-5.238-5.234 0-2.893 2.346-5.238 5.238-5.238s5.236 2.346 5.236 5.238c.001 2.891-2.343 5.234-5.236 5.234z"/><path fill="#F7F7F7" d="M12.905 86.287h2.201v-3.031c0-.557-.111-4.264 4.637-4.264h3.352v3.857h-2.465c-.488 0-.981 .51-.981 .889v2.533h3.44c-.139 1.943-.421 3.721-.421 3.721h-3.036v11.016h-4.525v-11.016h-2.201v-3.705z"/><path fill="#F7F7F7" d="M24.062 129.425c-2.788 3.617-5.151 5.426-7.081 5.426-1.189 0-2.204-1.107-3.029-3.311-.553-2.023-1.105-4.045-1.654-6.07-.614-2.203-1.273-3.305-1.982-3.305-.146 0-.687 .318-1.605 .965l-.964-1.24c1.012-.891 2.007-1.779 2.989-2.666 1.347-1.166 2.359-1.779 3.03-1.84 1.594-.152 2.574 .934 2.945 3.264 .396 2.514 .67 4.076 .825 4.688 .461 2.084 .965 3.127 1.518 3.127 .427 0 1.069-.674 1.929-2.023 .856-1.35 1.317-2.375 1.378-3.078 .124-1.168-.337-1.75-1.378-1.75-.49 0-.998 .109-1.517 .322 1.01-3.277 2.938-4.871 5.789-4.779 2.114 .061 3.112 1.424 2.989 4.09-.096 1.99-1.484 4.717-4.182 8.18z"/></svg>